<svg xmlns="http://www.w3.org/2000/svg" xmlns:xlink="http://www.w3.org/1999/xlink" viewBox="0 0 541 541"><defs><linearGradient id="linear-gradient" x1="98.51" y1="44.3" x2="98.51" y2="283.65" gradientUnits="userSpaceOnUse"><stop offset="0" stop-color="#d3d800"/><stop offset="0.01" stop-color="#d2d701"/><stop offset="0.25" stop-color="#b7ce0e"/><stop offset="0.49" stop-color="#a4c717"/><stop offset="0.74" stop-color="#99c21d"/><stop offset="1" stop-color="#95c11f"/></linearGradient><linearGradient id="linear-gradient-2" x1="442.49" y1="44.3" x2="442.49" y2="283.65" xlink:href="#linear-gradient"/><linearGradient id="linear-gradient-3" x1="270.69" y1="13.41" x2="270.69" y2="343.92" xlink:href="#linear-gradient"/><linearGradient id="linear-gradient-4" x1="232.81" y1="209.72" x2="232.81" y2="525.16" xlink:href="#linear-gradient"/><linearGradient id="linear-gradient-5" x1="197.79" y1="456.84" x2="197.79" y2="469.61" xlink:href="#linear-gradient"/><linearGradient id="linear-gradient-6" x1="269.29" y1="298.49" x2="269.29" y2="303.61" xlink:href="#linear-gradient"/><linearGradient id="linear-gradient-7" x1="269.29" y1="275.49" x2="269.29" y2="280.61" xlink:href="#linear-gradient"/><linearGradient id="linear-gradient-8" x1="269.29" y1="246.68" x2="269.29" y2="251.8" xlink:href="#linear-gradient"/></defs><title>ElephantSick</title><g id="Layer_2" data-name="Layer 2"><g id="Layer_1-2" data-name="Layer 1"><rect x="0.5" y="0.5" width="540" height="540" style="fill:#fff;stroke:#1d1d1b;stroke-miterlimit:10;opacity:0"/><path d="M179.06,146.46c8.53,67.06-8.8,127.45-50.62,136.17S46.22,243.07,27.63,178C6.51,104.12,8.23,61.85,79.43,47.55,150.35,33.31,168.79,65.84,179.06,146.46Z" style="fill:#666d77"/><path d="M361.94,146.46c-8.53,67.06,8.8,127.45,50.62,136.17S494.78,243.07,513.37,178c21.12-73.91,19.4-116.18-51.8-130.48C390.65,33.31,372.21,65.84,361.94,146.46Z" style="fill:#666d77"/><path d="M439.67,174.67C428,267.41,363.89,343.92,270.42,343.92s-158.48-76.4-169.25-169.25C88.92,69.15,111.49,12.68,270.42,13.42,428.69,14.14,453.69,63.16,439.67,174.67Z" style="fill:#939dac"/><path d="M222.05,209.72c24.47,98.29,23.37,264-19.41,247.47s-71.64,46.5-38.46,61.5,111.17,4.5,126.17-37.5,5-246,25.51-271.47" style="fill:#939dac;stroke:#7b8591;stroke-miterlimit:10;stroke-width:3px"/><path d="M246.79,280.61c15-6,23.9-7.61,45,0" style="fill:#939dac;stroke:#7b8591;stroke-miterlimit:10;stroke-width:3px"/><path d="M246.79,251.8c15-6,23.9-7.61,45,0" style="fill:#939dac;stroke:#7b8591;stroke-miterlimit:10;stroke-width:3px"/><path d="M246.79,303.61c15-6,23.9-7.61,45,0" style="fill:#939dac;stroke:#7b8591;stroke-miterlimit:10;stroke-width:3px"/><g style="opacity:0.53"><path d="M179.06,146.46c8.53,67.06-8.8,127.45-50.62,136.17S46.22,243.07,27.63,178C6.51,104.12,8.23,61.85,79.43,47.55,150.35,33.31,168.79,65.84,179.06,146.46Z" style="fill:url(#linear-gradient)"/><path d="M361.94,146.46c-8.53,67.06,8.8,127.45,50.62,136.17S494.78,243.07,513.37,178c21.12-73.91,19.4-116.18-51.8-130.48C390.65,33.31,372.21,65.84,361.94,146.46Z" style="fill:url(#linear-gradient-2)"/><path d="M439.67,174.67C428,267.41,363.89,343.92,270.42,343.92s-158.48-76.4-169.25-169.25C88.92,69.15,111.49,12.68,270.42,13.42,428.69,14.14,453.69,63.16,439.67,174.67Z" style="fill:url(#linear-gradient-3)"/><path d="M222.05,209.72c24.47,98.29,23.37,264-19.41,247.47s-71.64,46.5-38.46,61.5,111.17,4.5,126.17-37.5,5-246,25.51-271.47" style="fill:url(#linear-gradient-4)"/><path d="M214.4,456.84c-17.61,12.77-33.22,12.77-33.22,12.77" style="fill:url(#linear-gradient-5)"/><path d="M246.79,303.61c15-6,23.9-7.61,45,0" style="fill:url(#linear-gradient-6)"/><path d="M246.79,280.61c15-6,23.9-7.61,45,0" style="fill:url(#linear-gradient-7)"/><path d="M246.79,251.8c15-6,23.9-7.61,45,0" style="fill:url(#linear-gradient-8)"/></g><path d="M149.15,357.6c-.08,22.95,1,43.16,5.24,63.12,1.93,9.16,4.63,9,9.75,4.09,21.08-20.18,36.76-46.09,50.45-73.95a211,211,0,0,0,11.66-29.35c9.2-29.13-6.4-59-31.76-61.51-24.77-2.49-36.86,10-41.54,43.66C150.35,322.3,148.4,341.08,149.15,357.6Z" style="fill:#fff;stroke:#1d1d1b;stroke-miterlimit:10"/><path d="M392.22,357.6c.08,22.95-1,43.16-5.24,63.12-1.93,9.16-4.63,9-9.75,4.09-21.08-20.18-36.76-46.09-50.45-73.95a211,211,0,0,1-11.66-29.35c-9.2-29.13,6.4-59,31.76-61.51,24.77-2.49,36.86,10,41.54,43.66C391,322.3,393,341.08,392.22,357.6Z" style="fill:#fff;stroke:#1d1d1b;stroke-miterlimit:10"/><path d="M214.4,456.84c-17.61,12.77-33.22,12.77-33.22,12.77" style="fill:#939dac;stroke:#7b8591;stroke-miterlimit:10;stroke-width:3px"/><path d="M238.91,163.84c0,19.14-11.19,34.66-25,34.66s-25-15.52-25-34.66c0-7.91,1.91-4.19,5.12-10,4.57-8.3,11.77-3.65,19.88-3.65s15.44-4.55,20,3.86C237.05,159.83,238.91,156,238.91,163.84Z" style="fill:#fff"/><path d="M345.66,163.84c0,19.14-11.19,34.66-25,34.66s-25-15.52-25-34.66c0-7.91,1.91-4.19,5.12-10,4.57-8.3,11.77-3.65,19.88-3.65s15.44-4.55,20,3.86C343.8,159.83,345.66,156,345.66,163.84Z" style="fill:#fff"/><circle cx="213.91" cy="182.08" r="13.13" style="fill:#1d1d1b"/><circle cx="319.71" cy="182.08" r="13.13" style="fill:#1d1d1b"/></g></g></svg>