<svg xmlns="http://www.w3.org/2000/svg" viewBox="0 0 541 541"><title>ElephantAlive</title><g id="Layer_2" data-name="Layer 2"><g id="Layer_1-2" data-name="Layer 1"><rect x="0.5" y="0.5" width="540" height="540" style="fill:#fff;stroke:#1d1d1b;stroke-miterlimit:10;opacity:0"/><path d="M178.87,144.86c8.54,67-8.8,127.45-50.61,136.17S46,241.47,27.45,176.43C6.32,102.52,8.05,60.25,79.25,46,150.16,31.71,168.61,64.24,178.87,144.86Z" style="fill:#666d77"/><path d="M361.76,144.86c-8.54,67,8.8,127.45,50.61,136.17s82.23-39.56,100.81-104.6c21.13-73.91,19.4-116.18-51.8-130.48C390.47,31.71,372,64.24,361.76,144.86Z" style="fill:#666d77"/><path d="M439.48,173.06c-11.66,92.75-75.77,169.26-169.25,169.26S111.75,265.92,101,173.06C88.74,67.55,111.31,11.08,270.23,11.81,428.51,12.54,453.5,61.56,439.48,173.06Z" style="fill:#939dac"/><ellipse cx="216.18" cy="155.3" rx="26.7" ry="37.03" style="fill:#fff"/><ellipse cx="217.66" cy="153.38" rx="14.02" ry="19.44" style="fill:#1d1d1b"/><ellipse cx="315.63" cy="155.3" rx="26.7" ry="37.03" style="fill:#fff"/><ellipse cx="315.65" cy="152.65" rx="14.02" ry="19.44" style="fill:#1d1d1b"/><path d="M149,356c-.08,22.95,1,43.16,5.24,63.12,1.93,9.16,4.63,9,9.74,4.09C185,403,200.71,377.12,214.41,349.26a209.74,209.74,0,0,0,11.65-29.35c9.2-29.13-6.39-59-31.76-61.51-24.76-2.49-36.86,10-41.54,43.66C150.17,320.7,148.21,339.48,149,356Z" style="fill:#fff;stroke:#1d1d1b;stroke-miterlimit:10"/><path d="M392,356c.08,22.95-1,43.16-5.24,63.12-1.93,9.16-4.63,9-9.74,4.09C356,403,340.29,377.12,326.59,349.26a209.74,209.74,0,0,1-11.65-29.35c-9.2-29.13,6.39-59,31.76-61.51,24.76-2.49,36.86,10,41.54,43.66C390.83,320.7,392.79,339.48,392,356Z" style="fill:#fff;stroke:#1d1d1b;stroke-miterlimit:10"/><path d="M221.86,208.12c24.47,98.29,23.37,264-19.41,247.47s-71.64,46.5-38.46,61.49,111.17,4.5,126.17-37.49,5-246,25.52-271.47" style="fill:#939dac;stroke:#7b8591;stroke-miterlimit:10;stroke-width:3px"/><path d="M214.21,455.24C196.6,468,181,468,181,468" style="fill:#939dac;stroke:#7b8591;stroke-miterlimit:10;stroke-width:3px"/><path d="M246.6,302c15-6,23.91-7.61,45,0" style="fill:#939dac;stroke:#7b8591;stroke-miterlimit:10;stroke-width:3px"/><path d="M246.6,279c15-6,23.91-7.61,45,0" style="fill:#939dac;stroke:#7b8591;stroke-miterlimit:10;stroke-width:3px"/><path d="M246.6,250.2c15-6,23.91-7.61,45,0" style="fill:#939dac;stroke:#7b8591;stroke-miterlimit:10;stroke-width:3px"/></g></g></svg>