<svg xmlns="http://www.w3.org/2000/svg" viewBox="0 0 541 541"><title>ElephantDead</title><g id="Layer_2" data-name="Layer 2"><g id="Layer_1-2" data-name="Layer 1"><rect x="0.5" y="0.5" width="540" height="540" style="fill:#fff;stroke:#1d1d1b;stroke-miterlimit:10;opacity:0"/><path d="M386.88,173.06c-11.66,92.75,17.85,169-116.25,169.26-134.72.22-110.48-76.4-121.25-169.26-12.24-105.51-37.67-162,121.25-161.25C428.91,12.54,400.9,61.56,386.88,173.06Z" style="fill:#fff;stroke:#1d1d1b;stroke-miterlimit:10"/><path d="M297.81,243.09c-2.84,22.61,4.36,41.2-28.34,41.26s-26.93-18.63-29.56-41.26c-3-25.73-9.18-39.49,29.56-39.31C308.06,204,301.23,215.9,297.81,243.09Z" style="fill:#1d1d1b;stroke:#fff;stroke-miterlimit:10"/><ellipse cx="216.57" cy="155.3" rx="26.7" ry="37.03" style="fill:#1d1d1b;stroke:#fff;stroke-miterlimit:10"/><ellipse cx="316.02" cy="155.3" rx="26.7" ry="37.03" style="fill:#1d1d1b;stroke:#fff;stroke-miterlimit:10"/><path d="M149.36,356c-.08,22.95,1,43.16,5.24,63.12,1.93,9.16,4.63,9,9.75,4.09,21.08-20.19,36.76-46.09,50.46-73.95a211,211,0,0,0,11.65-29.35c9.2-29.13-6.4-59-31.76-61.51-24.77-2.49-36.86,10-41.54,43.66C150.56,320.7,148.61,339.48,149.36,356Z" style="fill:#fff;stroke:#1d1d1b;stroke-miterlimit:10"/><path d="M392.43,356c.08,22.95-1,43.16-5.24,63.12-1.93,9.16-4.63,9-9.75,4.09C356.36,403,340.68,377.12,327,349.26a211,211,0,0,1-11.66-29.35c-9.19-29.13,6.4-59,31.77-61.51,24.76-2.49,36.86,10,41.54,43.66C391.23,320.7,393.19,339.48,392.43,356Z" style="fill:#fff;stroke:#1d1d1b;stroke-miterlimit:10"/><rect x="236.45" y="284.35" width="65.31" height="15.4" rx="7.7" ry="7.7" style="fill:#fff;stroke:#1d1d1b;stroke-miterlimit:10"/><line x1="236.45" y1="292.05" x2="301.76" y2="292.05" style="fill:none;stroke:#1d1d1b;stroke-miterlimit:10"/><line x1="243.91" y1="284.35" x2="243.91" y2="299.75" style="fill:none;stroke:#1d1d1b;stroke-miterlimit:10"/><line x1="252.12" y1="284.35" x2="252.12" y2="299.75" style="fill:none;stroke:#1d1d1b;stroke-miterlimit:10"/><line x1="259.82" y1="284.35" x2="259.82" y2="299.75" style="fill:none;stroke:#1d1d1b;stroke-miterlimit:10"/><line x1="267.53" y1="284.35" x2="267.53" y2="299.75" style="fill:none;stroke:#1d1d1b;stroke-miterlimit:10"/><line x1="275.23" y1="284.35" x2="275.23" y2="299.75" style="fill:none;stroke:#1d1d1b;stroke-miterlimit:10"/><line x1="282.42" y1="284.35" x2="282.42" y2="299.75" style="fill:none;stroke:#1d1d1b;stroke-miterlimit:10"/><line x1="290.12" y1="284.35" x2="290.12" y2="299.75" style="fill:none;stroke:#1d1d1b;stroke-miterlimit:10"/><line x1="297.31" y1="284.35" x2="297.31" y2="299.75" style="fill:none;stroke:#1d1d1b;stroke-miterlimit:10"/></g></g></svg>