<svg xmlns="http://www.w3.org/2000/svg" viewBox="0 0 407.65 407.65"><title>GiraffeDead</title><g id="Layer_2" data-name="Layer 2"><g id="Layer_1-2" data-name="Layer 1"><rect x="0.5" y="0.5" width="406.65" height="406.65" style="fill:#fff;stroke:#1d1d1b;stroke-miterlimit:10;opacity:0"/><rect x="100.02" y="34.07" width="18" height="80.67" rx="9" ry="9" transform="translate(-21.63 55.66) rotate(-26.15)" style="fill:#fff;stroke:#1d1d1b;stroke-miterlimit:10"/><circle cx="91.24" cy="38.2" r="18.83" style="fill:#fff;stroke:#1d1d1b;stroke-miterlimit:10"/><rect x="289.62" y="36.81" width="18" height="80.67" rx="9" ry="9" transform="translate(532.68 278) rotate(-153.85)" style="fill:#fff;stroke:#1d1d1b;stroke-miterlimit:10"/><circle cx="316.4" cy="40.94" r="18.83" style="fill:#fff;stroke:#1d1d1b;stroke-miterlimit:10"/><path d="M299.74,229.33C299.74,317,349.8,388,206.07,388c-154.69,0-97.66-71-97.66-158.67S48.37,61.7,206.07,61.66C356.43,61.63,299.74,141.7,299.74,229.33Z" style="fill:#fff;stroke:#1d1d1b;stroke-miterlimit:10"/><path d="M315.74,311c0,50.62-35.84,91.66-109.67,91.66S92.41,361.62,92.41,311s39.84-91.67,113.66-91.67S315.74,260.37,315.74,311Z" style="fill:#fff;stroke:#1d1d1b;stroke-miterlimit:10"/><ellipse cx="145.18" cy="170.46" rx="25" ry="34.67" style="fill:#1d1d1b;stroke:#fff;stroke-miterlimit:10"/><ellipse cx="268.24" cy="171.12" rx="25" ry="34.67" style="fill:#1d1d1b;stroke:#fff;stroke-miterlimit:10"/><ellipse cx="135.32" cy="282.33" rx="9.86" ry="24.33" style="fill:#1d1d1b;stroke:#fff;stroke-miterlimit:10"/><ellipse cx="278.1" cy="282.33" rx="9.86" ry="24.33" style="fill:#1d1d1b;stroke:#fff;stroke-miterlimit:10"/><rect x="145.18" y="346.59" width="127.2" height="30" rx="12" ry="12" style="fill:#fff;stroke:#1d1d1b;stroke-miterlimit:10"/><line x1="145.18" y1="361.59" x2="272.38" y2="361.59" style="fill:none;stroke:#1d1d1b;stroke-miterlimit:10"/><line x1="159.71" y1="346.59" x2="159.71" y2="376.59" style="fill:none;stroke:#1d1d1b;stroke-miterlimit:10"/><line x1="175.71" y1="346.59" x2="175.71" y2="376.59" style="fill:none;stroke:#1d1d1b;stroke-miterlimit:10"/><line x1="190.71" y1="346.59" x2="190.71" y2="376.59" style="fill:none;stroke:#1d1d1b;stroke-miterlimit:10"/><line x1="205.71" y1="346.59" x2="205.71" y2="376.59" style="fill:none;stroke:#1d1d1b;stroke-miterlimit:10"/><line x1="220.71" y1="346.59" x2="220.71" y2="376.59" style="fill:none;stroke:#1d1d1b;stroke-miterlimit:10"/><line x1="234.71" y1="346.59" x2="234.71" y2="376.59" style="fill:none;stroke:#1d1d1b;stroke-miterlimit:10"/><line x1="249.71" y1="346.59" x2="249.71" y2="376.59" style="fill:none;stroke:#1d1d1b;stroke-miterlimit:10"/><line x1="263.71" y1="346.59" x2="263.71" y2="376.59" style="fill:none;stroke:#1d1d1b;stroke-miterlimit:10"/></g></g></svg>