<svg xmlns="http://www.w3.org/2000/svg" viewBox="0 0 407.65 407.65"><title>GiraffeAlive</title><g id="Layer_2" data-name="Layer 2"><g id="Layer_1-2" data-name="Layer 1"><ellipse cx="342.04" cy="127.48" rx="46" ry="39.67" style="fill:#fcea10"/><ellipse cx="69.16" cy="127.48" rx="46" ry="39.67" style="fill:#fcea10"/><ellipse cx="69.16" cy="127.48" rx="36.8" ry="29.32" style="fill:#f9b233"/><ellipse cx="342.04" cy="127.48" rx="36.8" ry="29.32" style="fill:#f9b233"/><circle cx="90.99" cy="37.68" r="18.83" style="fill:#7d4e24"/><rect x="99.77" y="33.55" width="18" height="80.67" rx="9" ry="9" transform="translate(-21.43 55.5) rotate(-26.15)" style="fill:#7d4e24"/><circle cx="316.15" cy="40.42" r="18.83" style="fill:#7d4e24"/><rect x="289.37" y="36.29" width="18" height="80.67" rx="9" ry="9" transform="translate(532.43 276.91) rotate(-153.85)" style="fill:#7d4e24"/><path d="M218,122.14H193.66c-6.6,0-11-5.4-11-12l-16-54.33a12,12,0,0,1,12-12H233a12,12,0,0,1,12,12l-15,54.33A12,12,0,0,1,218,122.14Z" style="fill:#7d4e24"/><path d="M339.49,228.81c0,87.63-51.56,158.67-133.67,158.67s-133.66-71-133.66-158.67S123.72,61.14,205.82,61.14,339.49,141.18,339.49,228.81Z" style="fill:#fcea10"/><path d="M315.49,310.48c0,50.62-35.85,91.66-109.67,91.66s-113.66-41-113.66-91.66S132,218.81,205.82,218.81,315.49,259.85,315.49,310.48Z" style="fill:#f9b233"/><ellipse cx="144.93" cy="169.94" rx="25" ry="34.67" style="fill:#fff"/><ellipse cx="152.5" cy="175" rx="13.13" ry="18.2" style="fill:#1d1d1b"/><ellipse cx="267.99" cy="170.6" rx="25" ry="34.67" style="fill:#fff"/><ellipse cx="135.07" cy="281.81" rx="9.86" ry="24.33" style="fill:#683c11"/><ellipse cx="277.85" cy="281.81" rx="9.86" ry="24.33" style="fill:#683c11"/><path d="M139.37,345.05c0,14.74,47.24,26.67,105.62,26.67" style="fill:none;stroke:#1d1d1b;stroke-miterlimit:10"/><ellipse cx="274.59" cy="175" rx="13.13" ry="18.2" style="fill:#1d1d1b"/><path d="M152.47,73.88c16.29-5.83,43.23,30.6,17.46,38.6s-50.77,11.92-54.77,23.46-17.1-8.46-17.1-8.46S124.31,84,152.47,73.88Z" style="fill:#b17f4a"/><path d="M331.6,170.6S295.92,193.14,296,218.81s20.1,23.94,20.11,33.3S335,272.42,335,272.42,345.63,206.44,331.6,170.6Z" style="fill:#b17f4a"/><path d="M80.23,169.94c12.13-31,60.47,38.2,39.7,48.87s-32.77,26.67-32.77,38.67-12,7.18-12,7.18S66.66,204.56,80.23,169.94Z" style="fill:#b17f4a"/><path d="M261.46,76.62S240.82,84.84,245,98.16s45.12-2.22,50.67,4.41S287.34,88.37,261.46,76.62Z" style="fill:#b17f4a"/><rect x="0.5" y="0.5" width="406.65" height="406.65" style="fill:#fff;stroke:#1d1d1b;stroke-miterlimit:10;opacity:0"/></g></g></svg>