<svg xmlns="http://www.w3.org/2000/svg" xmlns:xlink="http://www.w3.org/1999/xlink" viewBox="0 0 407.65 407.65"><defs><linearGradient id="linear-gradient" x1="342.26" y1="87.66" x2="342.26" y2="167" gradientUnits="userSpaceOnUse"><stop offset="0" stop-color="#3aaa35"/><stop offset="0.18" stop-color="#58b22e"/><stop offset="0.37" stop-color="#73b827"/><stop offset="0.57" stop-color="#86bd23"/><stop offset="0.78" stop-color="#91c020"/><stop offset="1" stop-color="#95c11f"/></linearGradient><linearGradient id="linear-gradient-2" x1="69.38" y1="87.66" x2="69.38" y2="167" xlink:href="#linear-gradient"/><linearGradient id="linear-gradient-3" x1="69.38" y1="98.01" x2="69.38" y2="156.65" xlink:href="#linear-gradient"/><linearGradient id="linear-gradient-4" x1="342.26" y1="98.01" x2="342.26" y2="156.65" xlink:href="#linear-gradient"/><linearGradient id="linear-gradient-5" x1="109" y1="36.62" x2="109" y2="110.86" gradientTransform="translate(43.66 -40.49) rotate(26.15)" xlink:href="#linear-gradient"/><linearGradient id="linear-gradient-6" x1="91.22" y1="18.7" x2="91.22" y2="56.37" xlink:href="#linear-gradient"/><linearGradient id="linear-gradient-7" x1="298.6" y1="39.36" x2="298.6" y2="113.6" gradientTransform="translate(600.34 13.52) rotate(153.85)" xlink:href="#linear-gradient"/><linearGradient id="linear-gradient-8" x1="316.38" y1="21.44" x2="316.38" y2="59.11" xlink:href="#linear-gradient"/><linearGradient id="linear-gradient-9" x1="206.05" y1="43.66" x2="206.05" y2="122" xlink:href="#linear-gradient"/><linearGradient id="linear-gradient-10" x1="206.05" y1="61" x2="206.05" y2="387.33" xlink:href="#linear-gradient"/><linearGradient id="linear-gradient-11" x1="204.05" y1="218.66" x2="204.05" y2="402" xlink:href="#linear-gradient"/></defs><title>GiraffeSick</title><g id="Layer_2" data-name="Layer 2"><g id="Layer_1-2" data-name="Layer 1"><rect x="0.5" y="0.5" width="406.65" height="406.65" style="fill:#fff;stroke:#1d1d1b;stroke-miterlimit:10;opacity:0"/><ellipse cx="342.26" cy="127.33" rx="46" ry="39.67" style="fill:#fcea10"/><ellipse cx="69.38" cy="127.33" rx="46" ry="39.67" style="fill:#fcea10"/><ellipse cx="69.38" cy="127.33" rx="36.8" ry="29.32" style="fill:#f9b233"/><ellipse cx="342.26" cy="127.33" rx="36.8" ry="29.32" style="fill:#f9b233"/><circle cx="91.22" cy="37.53" r="18.83" style="fill:#7d4e24"/><rect x="100" y="33.4" width="18" height="80.67" rx="9" ry="9" transform="translate(-21.34 55.59) rotate(-26.15)" style="fill:#7d4e24"/><circle cx="316.38" cy="40.27" r="18.83" style="fill:#7d4e24"/><rect x="289.6" y="36.14" width="18" height="80.67" rx="9" ry="9" transform="translate(532.93 276.73) rotate(-153.85)" style="fill:#7d4e24"/><path d="M218.22,122H193.88c-6.6,0-11-5.4-11-12l-16-54.34a12,12,0,0,1,12-12h54.34a12,12,0,0,1,12,12l-15,54.34A12,12,0,0,1,218.22,122Z" style="fill:#7d4e24"/><path d="M339.72,228.66c0,87.63-51.56,158.67-133.67,158.67s-133.67-71-133.67-158.67S123.94,61,206.05,61,339.72,141,339.72,228.66Z" style="fill:#fcea10"/><path d="M331.83,170.46s-35.69,22.54-35.57,48.2,20.11,24,20.12,33.31,18.83,20.31,18.83,20.31S345.85,206.29,331.83,170.46Z" style="fill:#b17f4a"/><path d="M315.72,310.33C315.72,361,279.87,402,206.05,402S92.38,361,92.38,310.33s39.85-91.67,113.67-91.67S315.72,259.7,315.72,310.33Z" style="fill:#f9b233"/><ellipse cx="135.29" cy="281.66" rx="9.86" ry="24.33" style="fill:#683c11"/><ellipse cx="278.08" cy="281.66" rx="9.86" ry="24.33" style="fill:#683c11"/><path d="M152.7,73.74c16.29-5.84,43.23,30.59,17.46,38.59s-50.78,11.92-54.78,23.46-17.09-8.46-17.09-8.46S124.54,83.83,152.7,73.74Z" style="fill:#b17f4a"/><path d="M80.45,169.79c12.14-31,60.48,38.21,39.71,48.87s-32.78,26.67-32.78,38.67-12,7.18-12,7.18S66.89,204.42,80.45,169.79Z" style="fill:#b17f4a"/><path d="M261.69,76.48S241.05,84.69,245.22,98s45.11-2.21,50.66,4.42S287.57,88.23,261.69,76.48Z" style="fill:#b17f4a"/><g style="opacity:0.64"><ellipse cx="342.26" cy="127.33" rx="46" ry="39.67" style="fill:url(#linear-gradient)"/><ellipse cx="69.38" cy="127.33" rx="46" ry="39.67" style="fill:url(#linear-gradient-2)"/><ellipse cx="69.38" cy="127.33" rx="36.8" ry="29.32" style="fill:url(#linear-gradient-3)"/><ellipse cx="342.26" cy="127.33" rx="36.8" ry="29.32" style="fill:url(#linear-gradient-4)"/><rect x="100" y="33.4" width="18" height="80.67" rx="9" ry="9" transform="translate(-21.34 55.59) rotate(-26.15)" style="fill:url(#linear-gradient-5)"/><circle cx="91.22" cy="37.53" r="18.83" style="fill:url(#linear-gradient-6)"/><rect x="289.6" y="36.14" width="18" height="80.67" rx="9" ry="9" transform="translate(532.93 276.73) rotate(-153.85)" style="fill:url(#linear-gradient-7)"/><circle cx="316.38" cy="40.27" r="18.83" style="fill:url(#linear-gradient-8)"/><path d="M218.22,122H193.88c-6.6,0-11-5.4-11-12l-16-54.34a12,12,0,0,1,12-12h54.34a12,12,0,0,1,12,12l-15,54.34A12,12,0,0,1,218.22,122Z" style="fill:url(#linear-gradient-9)"/><path d="M339.72,228.66c0,87.63-51.56,158.67-133.67,158.67s-133.67-71-133.67-158.67S123.94,61,206.05,61,339.72,141,339.72,228.66Z" style="fill:url(#linear-gradient-10)"/><path d="M315.72,310.33C315.72,361,279.87,402,206.05,402S92.38,361,92.38,310.33s39.85-91.67,113.67-91.67S315.72,259.7,315.72,310.33Z" style="fill:url(#linear-gradient-11)"/></g><path d="M170.16,169.79c0,19.15-11.2,34.67-25,34.67s-25-15.52-25-34.67c0-7.9,1.9-4.19,5.11-10,4.57-8.29,11.78-3.65,19.89-3.65s15.44-4.55,20,3.87C168.3,165.78,170.16,162,170.16,169.79Z" style="fill:#fff"/><path d="M292.91,169.79c0,19.15-11.2,34.67-25,34.67s-25-15.52-25-34.67c0-7.9,1.9-4.19,5.11-10,4.57-8.29,11.78-3.65,19.89-3.65s15.44-4.55,20,3.87C291.05,165.78,292.91,162,292.91,169.79Z" style="fill:#fff"/><circle cx="145.16" cy="188.04" r="13.13" style="fill:#1d1d1b"/><path d="M262.11,384c.15-12.24-46.29-22.74-103.83-23.47" style="fill:none;stroke:#1d1d1b;stroke-miterlimit:10"/><circle cx="266.95" cy="188.04" r="13.13" style="fill:#1d1d1b"/></g></g></svg>