<svg xmlns="http://www.w3.org/2000/svg" viewBox="0 0 623.02 623.02"><title>MonkeyAlive</title><g id="Layer_2" data-name="Layer 2"><g id="Layer_1-2" data-name="Layer 1"><ellipse cx="531.87" cy="233.1" rx="108.2" ry="83.55" transform="translate(190.97 703.22) rotate(-77.72)" style="fill:#542710"/><ellipse cx="531.87" cy="233.1" rx="70.18" ry="54.19" transform="matrix(0.21, -0.98, 0.98, 0.21, 190.97, 703.22)" style="fill:#d38d5f"/><ellipse cx="101.24" cy="235.28" rx="83.55" ry="108.2" transform="translate(-43.5 23.96) rotate(-11.13)" style="fill:#542710"/><ellipse cx="101.24" cy="235.28" rx="54.19" ry="70.18" transform="translate(-43.5 23.96) rotate(-11.13)" style="fill:#d38d5f"/><path d="M533.21,230.3c0,126.35-97,254.85-216.54,254.85S100.12,356.65,100.12,230.3,197.07,49.8,316.67,49.8,533.21,104,533.21,230.3Z" style="fill:#542710"/><ellipse cx="316.67" cy="433.12" rx="217.49" ry="170.37" style="fill:#d38d5f"/><path d="M347,199.31c18.49,71.32-9.9,140.39-63.42,154.27s-111.9-32.69-130.4-104S161.48,128.64,215,114.76,328.5,128,347,199.31Z" style="fill:#d38d5f"/><path d="M475.26,265c-28.41,68-92.79,105.82-143.81,84.51s-69.35-93.71-40.95-161.7,79.75-91.28,130.77-70S503.66,197,475.26,265Z" style="fill:#d38d5f"/><ellipse cx="270.79" cy="240.65" rx="31.98" ry="59.14" style="fill:#fff"/><ellipse cx="272.57" cy="237.57" rx="16.79" ry="31.05" style="fill:#1d1d1b"/><ellipse cx="360.89" cy="240.65" rx="31.98" ry="59.14" style="fill:#fff"/><ellipse cx="360.91" cy="236.4" rx="16.79" ry="31.05" style="fill:#1d1d1b"/><ellipse cx="267.12" cy="308.97" rx="36.03" ry="50.74" transform="matrix(0.31, -0.95, 0.95, 0.31, -109.07, 468.02)" style="fill:#d38d5f;stroke:#a37358;stroke-miterlimit:10"/><ellipse cx="364.75" cy="311.51" rx="50.74" ry="36.03" transform="translate(-79.18 129.82) rotate(-18.24)" style="fill:#d38d5f;stroke:#a37358;stroke-miterlimit:10"/><ellipse cx="274.48" cy="309.59" rx="18.78" ry="26.45" transform="translate(-104.57 475.45) rotate(-72.07)" style="fill:#2c1b10"/><ellipse cx="361.37" cy="310.92" rx="26.45" ry="18.78" transform="translate(-79.16 128.73) rotate(-18.24)" style="fill:#2c1b10"/><path d="M104.7,415.8l105.27,19a528.22,528.22,0,0,0,212.36-5L525.4,406.11" style="fill:none;stroke:#2c1b10;stroke-miterlimit:10;stroke-width:9px"/><path d="M344.75,442.12s-8,64.65,33,50.4,28.94-59.4,28.94-59.4Z" style="fill:#c4534d"/><rect x="0.5" y="0.5" width="622.02" height="622.02" style="fill:#fff;stroke:#1d1d1b;stroke-miterlimit:10;opacity:0"/></g></g></svg>