<svg xmlns="http://www.w3.org/2000/svg" xmlns:xlink="http://www.w3.org/1999/xlink" viewBox="0 0 623.02 623.02"><defs><linearGradient id="linear-gradient" x1="532.57" y1="128.89" x2="532.57" y2="343.33" gradientTransform="translate(649.99 -334.5) rotate(77.72)" gradientUnits="userSpaceOnUse"><stop offset="0" stop-color="#3aaa35"/><stop offset="0.18" stop-color="#58b22e"/><stop offset="0.37" stop-color="#73b827"/><stop offset="0.57" stop-color="#86bd23"/><stop offset="0.78" stop-color="#91c020"/><stop offset="1" stop-color="#95c11f"/></linearGradient><linearGradient id="linear-gradient-2" x1="101.93" y1="130.9" x2="101.93" y2="345.69" gradientTransform="translate(47.9 -15.19) rotate(11.13)" xlink:href="#linear-gradient"/><linearGradient id="linear-gradient-3" x1="317.36" y1="52.82" x2="317.36" y2="488.17" gradientTransform="matrix(1, 0, 0, 1, 0, 0)" xlink:href="#linear-gradient"/><linearGradient id="linear-gradient-4" x1="317.36" y1="265.77" x2="317.36" y2="606.5" gradientTransform="matrix(1, 0, 0, 1, 0, 0)" xlink:href="#linear-gradient"/></defs><title>MonkeySick</title><g id="Layer_2" data-name="Layer 2"><g id="Layer_1-2" data-name="Layer 1"><rect x="0.5" y="0.5" width="622.02" height="622.02" style="fill:#fff;stroke:#1d1d1b;stroke-miterlimit:10;opacity:0"/><ellipse cx="532.19" cy="236.28" rx="108.2" ry="83.55" transform="translate(188.11 706.03) rotate(-77.72)" style="fill:#542710"/><ellipse cx="532.19" cy="236.28" rx="70.18" ry="54.19" transform="translate(188.11 706.03) rotate(-77.72)" style="fill:#d38d5f"/><ellipse cx="101.55" cy="238.46" rx="83.55" ry="108.2" transform="translate(-44.11 24.08) rotate(-11.13)" style="fill:#542710"/><ellipse cx="101.55" cy="238.46" rx="54.19" ry="70.18" transform="translate(-44.11 24.08) rotate(-11.13)" style="fill:#d38d5f"/><path d="M533.53,233.48c0,126.35-96.95,254.85-216.55,254.85S100.43,359.83,100.43,233.48,197.39,53,317,53,533.53,107.13,533.53,233.48Z" style="fill:#542710"/><path d="M347.31,202.49c18.49,71.32-9.91,140.39-63.43,154.27s-111.9-32.69-130.39-104,8.31-120.93,61.83-134.81S328.81,131.17,347.31,202.49Z" style="fill:#d38d5f"/><path d="M475.57,268.14c-28.4,68-92.79,105.82-143.81,84.51S262.41,258.94,290.82,191s79.75-91.28,130.77-70S504,200.16,475.57,268.14Z" style="fill:#d38d5f"/><ellipse cx="316.98" cy="436.3" rx="217.49" ry="170.37" style="fill:#d38d5f"/><path d="M525.71,436.74l-105.27-19a528.22,528.22,0,0,0-212.36,5L105,446.44" style="fill:none;stroke:#2c1b10;stroke-miterlimit:10;stroke-width:9px"/><ellipse cx="365.06" cy="314.69" rx="50.74" ry="36.03" transform="translate(-80.16 130.08) rotate(-18.24)" style="fill:#d38d5f;stroke:#a37358;stroke-miterlimit:10"/><ellipse cx="267.43" cy="312.15" rx="36.03" ry="50.74" transform="translate(-111.88 470.52) rotate(-72.07)" style="fill:#d38d5f;stroke:#a37358;stroke-miterlimit:10"/><ellipse cx="274.79" cy="312.77" rx="18.78" ry="26.45" transform="translate(-107.38 477.95) rotate(-72.07)" style="fill:#2c1b10"/><ellipse cx="361.69" cy="314.1" rx="26.45" ry="18.78" transform="translate(-80.14 128.99) rotate(-18.24)" style="fill:#2c1b10"/><path d="M272.3,184.69s-27.54-2.37-31.94,56.06c0,0,37.37-12.54,63.92,0C304.28,240.75,303.3,187.53,272.3,184.69Z" style="fill:#d38d5f;stroke:#a37358;stroke-miterlimit:10"/><path d="M362.38,184.69s-27.54-2.37-31.94,56.06c0,0,37.37-12.54,63.92,0C394.36,240.75,393.38,187.53,362.38,184.69Z" style="fill:#d38d5f;stroke:#a37358;stroke-miterlimit:10"/><g style="opacity:0.67"><ellipse cx="532.57" cy="236.11" rx="108.2" ry="83.55" transform="translate(188.58 706.27) rotate(-77.72)" style="fill:url(#linear-gradient)"/><ellipse cx="101.93" cy="238.29" rx="83.55" ry="108.2" transform="translate(-44.07 24.15) rotate(-11.13)" style="fill:url(#linear-gradient-2)"/><path d="M533.91,233.31c0,126.35-96.95,254.86-216.55,254.86S100.82,359.66,100.82,233.31s97-180.49,216.54-180.49S533.91,107,533.91,233.31Z" style="fill:url(#linear-gradient-3)"/><ellipse cx="317.36" cy="436.14" rx="217.49" ry="170.37" style="fill:url(#linear-gradient-4)"/></g><path d="M238.94,241.32s-.06,28.08,5.1,35.26c0,0,23.34-7.75,49.76,9.05,0,0,12-22.82,9.06-44.31C302.86,241.32,279.67,229.56,238.94,241.32Z" style="fill:#fff"/><path d="M256.49,237.54s1.29,20.77,16.16,22.66c0,0,11.46,1.8,16.17-22.66C288.82,237.54,277.45,234,256.49,237.54Z" style="fill:#2c1b10"/><path d="M393.39,240.9s.06,29.25-5.11,36.73c0,0-23.34-8.07-49.75,9.43,0,0-12-23.78-9.06-46.16C329.47,240.9,352.66,228.64,393.39,240.9Z" style="fill:#fff"/><path d="M375.84,237s-1.29,21.64-16.17,23.61c0,0-11.45,1.87-16.16-23.61C343.51,237,354.88,233.27,375.84,237Z" style="fill:#2c1b10"/></g></g></svg>