<svg xmlns="http://www.w3.org/2000/svg" viewBox="0 0 623.02 623.02"><title>MonkeyDead</title><g id="Layer_2" data-name="Layer 2"><g id="Layer_1-2" data-name="Layer 1"><rect x="0.5" y="0.5" width="622.02" height="622.02" style="fill:#fff;stroke:#1d1d1b;stroke-miterlimit:10;opacity:0"/><path d="M532.47,231.25c0,126.36-97,254.86-216.55,254.86S99.37,357.61,99.37,231.25s97-180.49,216.55-180.49S532.47,104.9,532.47,231.25Z" style="fill:#fff;stroke:#1d1d1b;stroke-miterlimit:10"/><ellipse cx="270.04" cy="241.6" rx="31.98" ry="59.14" style="fill:#1d1d1b;stroke:#fff;stroke-miterlimit:10"/><ellipse cx="360.14" cy="241.6" rx="31.98" ry="59.14" style="fill:#1d1d1b;stroke:#fff;stroke-miterlimit:10"/><path d="M104,416.76l105.27,19a528.22,528.22,0,0,0,212.36-5l103.06-23.7" style="fill:#fff;stroke:#1d1d1b;stroke-miterlimit:10"/><ellipse cx="315.92" cy="434.08" rx="217.49" ry="170.37" style="fill:#fff;stroke:#1d1d1b;stroke-miterlimit:10"/><ellipse cx="270.73" cy="312.55" rx="18.78" ry="26.45" transform="translate(-109.98 473.94) rotate(-72.07)" style="fill:#1d1d1b;stroke:#fff;stroke-miterlimit:10"/><ellipse cx="357.63" cy="313.87" rx="26.45" ry="18.78" transform="translate(-80.27 127.71) rotate(-18.24)" style="fill:#1d1d1b;stroke:#fff;stroke-miterlimit:10"/><rect x="175.14" y="399.16" width="296.05" height="69.82" rx="7.7" ry="7.7" style="fill:#fff;stroke:#1d1d1b;stroke-miterlimit:10"/><line x1="175.14" y1="434.08" x2="471.19" y2="434.08" style="fill:none;stroke:#1d1d1b;stroke-miterlimit:10"/><line x1="208.96" y1="399.16" x2="208.96" y2="468.99" style="fill:none;stroke:#1d1d1b;stroke-miterlimit:10"/><line x1="246.2" y1="399.16" x2="246.2" y2="468.99" style="fill:none;stroke:#1d1d1b;stroke-miterlimit:10"/><line x1="281.11" y1="399.16" x2="281.11" y2="468.99" style="fill:none;stroke:#1d1d1b;stroke-miterlimit:10"/><line x1="316.02" y1="399.16" x2="316.02" y2="468.99" style="fill:none;stroke:#1d1d1b;stroke-miterlimit:10"/><line x1="350.93" y1="399.16" x2="350.93" y2="468.99" style="fill:none;stroke:#1d1d1b;stroke-miterlimit:10"/><line x1="383.52" y1="399.16" x2="383.52" y2="468.99" style="fill:none;stroke:#1d1d1b;stroke-miterlimit:10"/><line x1="418.43" y1="399.16" x2="418.43" y2="468.99" style="fill:none;stroke:#1d1d1b;stroke-miterlimit:10"/><line x1="451.01" y1="399.16" x2="451.01" y2="468.99" style="fill:none;stroke:#1d1d1b;stroke-miterlimit:10"/></g></g></svg>